<?xml version="1.0" encoding="UTF-8"?>
<svg enable-background="new 0 0 512 512" version="1.1" viewBox="0 0 512 512" xml:space="preserve" xmlns="http://www.w3.org/2000/svg">
	<path d="m512 234.67h-43.755c-10.287-100.87-90.042-180.62-190.91-190.91v-43.755h-42.667v43.755c-100.87 10.287-180.62 90.041-190.91 190.91h-43.755v42.667h43.755c10.287 100.87 90.042 180.62 190.91 190.91v43.754h42.667v-43.755c100.87-10.287 180.62-90.042 190.91-190.91h43.754v-42.666zm-234.67 190.53v-19.861h-42.667v19.861c-77.221-9.837-138.02-70.64-147.86-147.86h19.861v-42.667h-19.861c9.837-77.221 70.64-138.02 147.86-147.86v19.861h42.667v-19.862c77.221 9.837 138.02 70.64 147.86 147.86h-19.861v42.667h19.861c-9.836 77.222-70.639 138.02-147.86 147.86z" fill="#34CDFA"/>
	<path d="m256 128c-70.692 0-128 57.308-128 128s57.308 128 128 128 128-57.308 128-128c-0.082-70.658-57.342-127.92-128-128zm0 213.33c-47.128 0-85.333-38.205-85.333-85.333s38.205-85.333 85.333-85.333 85.333 38.205 85.333 85.333-38.205 85.333-85.333 85.333z" fill="#CCF2FE"/>
		<linearGradient id="a" x1="-36.117" x2="-33.289" y1="633.07" y2="635.9" gradientTransform="matrix(21.333 0 0 -21.333 996.33 13792)" gradientUnits="userSpaceOnUse">
		<stop stop-color="#34CDFA" offset="0"/>
		<stop stop-color="#E8D9F1" offset="1"/>
	</linearGradient>
	<circle cx="256" cy="256" r="42.667" fill="url(#a)"/>
</svg>
