<?xml version="1.0" encoding="iso-8859-1"?>
<!-- Generator: Adobe Illustrator 19.0.0, SVG Export Plug-In . SVG Version: 6.00 Build 0)  -->
<svg version="1.1" id="Capa_1" xmlns="http://www.w3.org/2000/svg" xmlns:xlink="http://www.w3.org/1999/xlink" x="0px" y="0px"
	 viewBox="0 0 512 512" style="enable-background:new 0 0 512 512;" xml:space="preserve">
<g>
	<path style="fill:#34CDFA;" d="M512,234.667h-43.755c-10.287-100.87-90.042-180.625-190.912-190.912V0h-42.667v43.755
		C133.796,54.042,54.042,133.796,43.755,234.667H0v42.667h43.755c10.287,100.87,90.042,180.625,190.912,190.912V512h42.667v-43.755
		c100.87-10.287,180.625-90.042,190.912-190.912H512V234.667z M277.333,425.195v-19.861h-42.667v19.861
		c-77.221-9.837-138.024-70.64-147.861-147.861h19.861v-42.667H86.805c9.837-77.221,70.64-138.024,147.861-147.861v19.861h42.667
		V86.805c77.221,9.837,138.024,70.64,147.861,147.861h-19.861v42.667h19.861C415.358,354.555,354.555,415.358,277.333,425.195z"/>
	<path style="fill:#CCF2FE;" d="M256,128c-70.692,0-128,57.308-128,128s57.308,128,128,128s128-57.308,128-128
		C383.918,185.342,326.658,128.082,256,128z M256,341.333c-47.128,0-85.333-38.205-85.333-85.333s38.205-85.333,85.333-85.333
		s85.333,38.205,85.333,85.333S303.128,341.333,256,341.333z"/>
	
		<linearGradient id="SVGID_1_" gradientUnits="userSpaceOnUse" x1="-36.1173" y1="633.0702" x2="-33.2889" y2="635.8986" gradientTransform="matrix(21.3333 0 0 -21.3333 996.3334 13791.667)">
		<stop  offset="0" style="stop-color:#34CDFA"/>
		<stop  offset="1" style="stop-color:#E8D9F1"/>
	</linearGradient>
	<circle style="fill:url(#SVGID_1_);" cx="256" cy="256" r="42.667"/>
</g>
<g>
</g>
<g>
</g>
<g>
</g>
<g>
</g>
<g>
</g>
<g>
</g>
<g>
</g>
<g>
</g>
<g>
</g>
<g>
</g>
<g>
</g>
<g>
</g>
<g>
</g>
<g>
</g>
<g>
</g>
</svg>
